<?xml version="1.0" encoding="utf-8"?>
<!-- Generator: Adobe Illustrator 16.0.4, SVG Export Plug-In . SVG Version: 6.00 Build 0)  -->
<!DOCTYPE svg PUBLIC "-//W3C//DTD SVG 1.1//EN" "http://www.w3.org/Graphics/SVG/1.1/DTD/svg11.dtd">
<svg version="1.1" id="Layer_1" xmlns="http://www.w3.org/2000/svg" xmlns:xlink="http://www.w3.org/1999/xlink" x="0px" y="0px"
	 width="601px" height="136px" viewBox="0 0 601 136" enable-background="new 0 0 601 136" xml:space="preserve">
<rect x="-20" y="1" display="none" width="640" height="136"/>
<text transform="matrix(1 0 0 1 -3.4131 68.3848)" display="none" fill="#FFFFFF" font-family="'Futura-Medium'" font-size="56.3109" letter-spacing="2">HANDSOME HIPSTER</text>
<text transform="matrix(1 0 0 1 130.4639 110.4756)" display="none" fill="#FFFFFF" font-family="'GillSans'" font-size="35.9372" letter-spacing="2">COFFEE ROASTERS</text>
<line fill="none" stroke="#FFFFFF" stroke-width="3" stroke-miterlimit="10" x1="125" y1="101.5" x2="35" y2="101.5"/>
<line fill="none" stroke="#FFFFFF" stroke-width="3" stroke-miterlimit="10" x1="125" y1="95.5" x2="2" y2="95.5"/>
<g>
	<line fill="none" stroke="#FFFFFF" stroke-width="3" stroke-miterlimit="10" x1="477" y1="95.5" x2="599" y2="95.5"/>
	<line fill="none" stroke="#FFFFFF" stroke-width="3" stroke-miterlimit="10" x1="477" y1="101.5" x2="566" y2="101.5"/>
</g>
<g>
	<path fill="#FFFFFF" d="M8.08,42.539h18.312V25.932h6.406v42.453h-6.406V48.561H8.08v19.824H1.674V25.932H8.08V42.539z"/>
	<path fill="#FFFFFF" d="M70.163,58.074H51.988l-4.729,10.311h-6.902l21.007-45.12l20.264,45.12h-7.011L70.163,58.074z
		 M67.551,52.052l-6.296-14.435l-6.599,14.435H67.551z"/>
	<path fill="#FFFFFF" d="M89.188,68.385v-45.34l30.96,32.39V25.932h6.406v45.038l-30.96-32.307v29.723H89.188z"/>
	<path fill="#FFFFFF" d="M138.98,68.385V25.932h8.908c4.271,0,7.644,0.422,10.119,1.265c2.657,0.825,5.068,2.227,7.231,4.207
		c4.381,3.996,6.572,9.248,6.572,15.755c0,6.526-2.282,11.805-6.847,15.837c-2.292,2.017-4.692,3.419-7.204,4.207
		c-2.347,0.788-5.674,1.182-9.981,1.182H138.98z M145.386,62.363h2.887c2.877,0,5.27-0.303,7.176-0.907
		c1.906-0.642,3.629-1.659,5.169-3.052c3.153-2.877,4.729-6.626,4.729-11.246c0-4.656-1.559-8.432-4.674-11.328
		c-2.805-2.584-6.938-3.877-12.4-3.877h-2.887V62.363z"/>
	<path fill="#FFFFFF" d="M206.122,32.228l-5.197,3.08c-0.972-1.686-1.897-2.786-2.777-3.299c-0.917-0.586-2.099-0.88-3.547-0.88
		c-1.778,0-3.254,0.505-4.427,1.513c-1.173,0.991-1.76,2.238-1.76,3.742c0,2.073,1.54,3.742,4.619,5.008l4.234,1.733
		c3.446,1.395,5.966,3.096,7.561,5.104c1.595,2.009,2.392,4.472,2.392,7.388c0,3.907-1.302,7.136-3.904,9.686
		c-2.622,2.568-5.875,3.852-9.761,3.852c-3.685,0-6.728-1.096-9.128-3.287c-2.365-2.189-3.84-5.264-4.427-9.224l6.489-1.43
		c0.293,2.493,0.806,4.216,1.54,5.169c1.32,1.833,3.245,2.75,5.774,2.75c1.998,0,3.657-0.668,4.977-2.006
		c1.32-1.337,1.979-3.031,1.979-5.083c0-0.824-0.115-1.58-0.344-2.267s-0.586-1.319-1.072-1.896s-1.113-1.117-1.883-1.621
		c-0.77-0.503-1.687-0.984-2.75-1.442l-4.097-1.704c-5.811-2.455-8.716-6.044-8.716-10.771c0-3.187,1.219-5.852,3.657-7.995
		c2.438-2.162,5.472-3.242,9.101-3.242C199.55,25.107,203.372,27.481,206.122,32.228z"/>
	<path fill="#FFFFFF" d="M215.083,46.966c0-5.976,2.19-11.108,6.571-15.397c4.362-4.29,9.605-6.434,15.728-6.434
		c6.049,0,11.236,2.163,15.562,6.489c4.344,4.326,6.516,9.523,6.516,15.59c0,6.104-2.182,11.282-6.544,15.535
		c-4.381,4.271-9.669,6.407-15.865,6.407c-5.481,0-10.403-1.897-14.765-5.692C217.484,59.266,215.083,53.767,215.083,46.966z
		 M221.545,47.035c0,4.688,1.576,8.543,4.729,11.565c3.135,3.022,6.754,4.533,10.861,4.533c4.454,0,8.212-1.539,11.273-4.616
		c3.061-3.113,4.592-6.904,4.592-11.373c0-4.523-1.512-8.314-4.537-11.374c-3.006-3.077-6.728-4.615-11.163-4.615
		c-4.418,0-8.148,1.539-11.191,4.615C223.066,38.812,221.545,42.566,221.545,47.035z"/>
	<path fill="#FFFFFF" d="M268.285,68.385l8.936-45.643l14.572,32.995l15.096-32.995l8.029,45.643h-6.572l-4.096-25.626
		l-12.566,27.578l-12.207-27.605l-4.564,25.653H268.285z"/>
	<path fill="#FFFFFF" d="M349.587,31.953h-17.02v10.201h16.524v6.021h-16.524v14.188h17.02v6.021h-23.426V25.932h23.426V31.953z"/>
	<path fill="#FFFFFF" d="M386.289,42.539h18.312V25.932h6.406v42.453h-6.406V48.561h-18.312v19.824h-6.406V25.932h6.406V42.539z"/>
	<path fill="#FFFFFF" d="M429.84,25.932v42.453h-6.406V25.932H429.84z"/>
	<path fill="#FFFFFF" d="M448.7,51.145v17.24h-6.406V25.932h7.259c3.556,0,6.241,0.248,8.056,0.742
		c1.833,0.495,3.446,1.43,4.84,2.805c2.438,2.383,3.656,5.389,3.656,9.019c0,3.886-1.302,6.966-3.904,9.239
		s-6.113,3.409-10.53,3.409H448.7z M448.7,45.206h2.393c5.884,0,8.825-2.264,8.825-6.792c0-4.381-3.033-6.571-9.101-6.571H448.7
		V45.206z"/>
	<path fill="#FFFFFF" d="M498.959,32.228l-5.196,3.08c-0.972-1.686-1.897-2.786-2.777-3.299c-0.916-0.586-2.099-0.88-3.547-0.88
		c-1.778,0-3.254,0.505-4.427,1.513c-1.173,0.991-1.76,2.238-1.76,3.742c0,2.073,1.54,3.742,4.619,5.008l4.234,1.733
		c3.446,1.395,5.967,3.096,7.562,5.104c1.595,2.009,2.393,4.472,2.393,7.388c0,3.907-1.302,7.136-3.904,9.686
		c-2.622,2.568-5.875,3.852-9.762,3.852c-3.684,0-6.727-1.096-9.128-3.287c-2.365-2.189-3.841-5.264-4.427-9.224l6.488-1.43
		c0.294,2.493,0.807,4.216,1.54,5.169c1.32,1.833,3.245,2.75,5.774,2.75c1.997,0,3.657-0.668,4.977-2.006
		c1.319-1.337,1.979-3.031,1.979-5.083c0-0.824-0.114-1.58-0.344-2.267s-0.587-1.319-1.072-1.896s-1.113-1.117-1.883-1.621
		c-0.771-0.503-1.688-0.984-2.75-1.442l-4.097-1.704c-5.812-2.455-8.716-6.044-8.716-10.771c0-3.187,1.219-5.852,3.656-7.995
		c2.438-2.162,5.472-3.242,9.102-3.242C492.388,25.107,496.21,27.481,498.959,32.228z"/>
	<path fill="#FFFFFF" d="M522.549,31.953v36.432h-6.406V31.953h-9.761v-6.021h25.9v6.021H522.549z"/>
	<path fill="#FFFFFF" d="M563.68,31.953h-17.02v10.201h16.524v6.021H546.66v14.188h17.02v6.021h-23.426V25.932h23.426V31.953z"/>
	<path fill="#FFFFFF" d="M588.726,50.292l13.143,18.092h-7.836l-12.125-17.377h-1.155v17.377h-6.406V25.932h7.506
		c5.609,0,9.66,1.054,12.153,3.162c2.749,2.346,4.124,5.444,4.124,9.293c0,3.006-0.861,5.591-2.584,7.753
		C593.821,48.304,591.548,49.688,588.726,50.292z M580.752,45.426h2.034c6.067,0,9.102-2.318,9.102-6.956
		c0-4.344-2.951-6.517-8.854-6.517h-2.282V45.426z"/>
</g>
<g>
	<path fill="#FFFFFF" d="M154.293,104.79v3.861c-2.574,1.404-5.545,2.105-8.914,2.105c-2.738,0-5.06-0.55-6.966-1.649
		c-1.907-1.1-3.416-2.615-4.527-4.545c-1.112-1.93-1.667-4.018-1.667-6.264c0-3.568,1.272-6.569,3.816-9.002s5.683-3.65,9.414-3.65
		c2.574,0,5.434,0.673,8.581,2.018v3.772c-2.866-1.638-5.668-2.457-8.405-2.457c-2.808,0-5.139,0.886-6.993,2.658
		c-1.854,1.772-2.781,3.992-2.781,6.66c0,2.69,0.912,4.901,2.737,6.633c1.825,1.731,4.159,2.597,7.001,2.597
		C148.561,107.528,151.462,106.615,154.293,104.79z"/>
	<path fill="#FFFFFF" d="M173.343,85.611c3.791,0,6.946,1.199,9.467,3.597c2.521,2.398,3.782,5.405,3.782,9.02
		s-1.272,6.606-3.816,8.976c-2.544,2.369-5.753,3.553-9.625,3.553c-3.697,0-6.776-1.185-9.239-3.553
		c-2.463-2.369-3.694-5.337-3.694-8.905c0-3.662,1.24-6.691,3.72-9.09C166.417,86.81,169.553,85.611,173.343,85.611z
		 M173.483,88.945c-2.808,0-5.115,0.877-6.922,2.632c-1.808,1.754-2.711,3.995-2.711,6.721c0,2.644,0.907,4.843,2.72,6.598
		c1.813,1.755,4.083,2.632,6.808,2.632c2.737,0,5.021-0.895,6.853-2.685c1.831-1.79,2.746-4.018,2.746-6.686
		c0-2.597-0.916-4.782-2.746-6.554C178.399,89.831,176.15,88.945,173.483,88.945z"/>
	<path fill="#FFFFFF" d="M193.621,85.962h13.073v3.124h-9.563v6.843h9.563v3.124h-9.563v11.423h-3.51V85.962z"/>
	<path fill="#FFFFFF" d="M213.179,85.962h13.073v3.124h-9.563v6.843h9.563v3.124h-9.563v11.423h-3.51V85.962z"/>
	<path fill="#FFFFFF" d="M232.702,85.962H246.6v3.124h-10.388v7.475h10.037v3.141h-10.037v7.615h10.721v3.124h-14.231V85.962z"/>
	<path fill="#FFFFFF" d="M253.366,85.962h13.898v3.124h-10.388v7.475h10.037v3.141h-10.037v7.615h10.721v3.124h-14.231V85.962z"/>
	<path fill="#FFFFFF" d="M286.815,110.476V85.962h6.142c2.479,0,4.448,0.614,5.904,1.842c1.457,1.229,2.186,2.89,2.186,4.983
		c0,1.428-0.357,2.662-1.071,3.703c-0.713,1.042-1.736,1.819-3.07,2.334c0.783,0.515,1.55,1.217,2.299,2.105
		c0.748,0.889,1.801,2.439,3.158,4.65c0.854,1.392,1.538,2.439,2.054,3.141l1.298,1.755h-4.176l-1.069-1.615
		c-0.035-0.059-0.105-0.158-0.21-0.298l-0.684-0.966l-1.087-1.791l-1.174-1.914c-0.725-1.006-1.389-1.808-1.991-2.403
		c-0.604-0.596-1.148-1.025-1.634-1.288c-0.486-0.263-1.304-0.395-2.451-0.395h-0.913v10.669H286.815z M291.378,88.945h-1.053v7.738
		h1.333c1.778,0,2.998-0.152,3.659-0.456c0.66-0.304,1.176-0.763,1.544-1.377s0.553-1.313,0.553-2.097
		c0-0.772-0.205-1.471-0.614-2.097c-0.409-0.625-0.985-1.067-1.729-1.325S293.098,88.945,291.378,88.945z"/>
	<path fill="#FFFFFF" d="M320.991,85.611c3.79,0,6.945,1.199,9.467,3.597c2.521,2.398,3.781,5.405,3.781,9.02
		s-1.272,6.606-3.816,8.976c-2.545,2.369-5.753,3.553-9.625,3.553c-3.696,0-6.776-1.185-9.238-3.553
		c-2.463-2.369-3.694-5.337-3.694-8.905c0-3.662,1.24-6.691,3.72-9.09C314.065,86.81,317.2,85.611,320.991,85.611z M321.131,88.945
		c-2.808,0-5.114,0.877-6.922,2.632c-1.808,1.754-2.711,3.995-2.711,6.721c0,2.644,0.906,4.843,2.72,6.598
		c1.812,1.755,4.082,2.632,6.809,2.632c2.737,0,5.021-0.895,6.852-2.685c1.831-1.79,2.746-4.018,2.746-6.686
		c0-2.597-0.915-4.782-2.746-6.554C326.047,89.831,323.799,88.945,321.131,88.945z"/>
	<path fill="#FFFFFF" d="M347.622,85.821h2.467l10.991,24.654h-3.592l-3.268-7.265h-10.458l-3.063,7.265h-3.606L347.622,85.821z
		 M352.778,100.087l-3.955-8.879l-3.668,8.879H352.778z"/>
	<path fill="#FFFFFF" d="M372.531,100.205l-2.667-1.621c-1.673-1.021-2.863-2.026-3.571-3.015c-0.707-0.988-1.062-2.126-1.062-3.413
		c0-1.931,0.67-3.498,2.01-4.703c1.339-1.205,3.079-1.807,5.22-1.807c2.048,0,3.925,0.575,5.633,1.724v3.983
		c-1.767-1.699-3.667-2.548-5.702-2.548c-1.147,0-2.089,0.265-2.825,0.795c-0.737,0.53-1.105,1.209-1.105,2.036
		c0,0.734,0.271,1.422,0.813,2.063c0.543,0.641,1.416,1.313,2.619,2.019l2.681,1.586c2.99,1.786,4.485,4.06,4.485,6.82
		c0,1.965-0.658,3.562-1.975,4.791c-1.315,1.228-3.026,1.842-5.133,1.842c-2.421,0-4.626-0.744-6.615-2.233v-4.457
		c1.896,2.401,4.089,3.602,6.58,3.602c1.1,0,2.016-0.306,2.746-0.918c0.731-0.612,1.098-1.378,1.098-2.299
		C375.761,102.958,374.684,101.543,372.531,100.205z"/>
	<path fill="#FFFFFF" d="M383.526,85.927h20.478v3.124h-8.545v21.425h-3.527V89.05h-8.405V85.927z"/>
	<path fill="#FFFFFF" d="M410.017,85.962h13.897v3.124h-10.388v7.475h10.037v3.141h-10.037v7.615h10.722v3.124h-14.231V85.962z"/>
	<path fill="#FFFFFF" d="M430.785,110.476V85.962h6.142c2.479,0,4.448,0.614,5.904,1.842c1.457,1.229,2.186,2.89,2.186,4.983
		c0,1.428-0.357,2.662-1.071,3.703c-0.713,1.042-1.736,1.819-3.07,2.334c0.783,0.515,1.55,1.217,2.299,2.105
		c0.748,0.889,1.801,2.439,3.158,4.65c0.854,1.392,1.538,2.439,2.054,3.141l1.298,1.755h-4.176l-1.069-1.615
		c-0.035-0.059-0.105-0.158-0.21-0.298l-0.684-0.966l-1.087-1.791l-1.174-1.914c-0.725-1.006-1.389-1.808-1.991-2.403
		c-0.604-0.596-1.148-1.025-1.634-1.288c-0.486-0.263-1.304-0.395-2.451-0.395h-0.913v10.669H430.785z M435.348,88.945h-1.053v7.738
		h1.333c1.778,0,2.998-0.152,3.659-0.456c0.66-0.304,1.176-0.763,1.544-1.377s0.553-1.313,0.553-2.097
		c0-0.772-0.205-1.471-0.614-2.097c-0.409-0.625-0.985-1.067-1.729-1.325S437.067,88.945,435.348,88.945z"/>
	<path fill="#FFFFFF" d="M461.152,100.205l-2.667-1.621c-1.673-1.021-2.863-2.026-3.571-3.015c-0.707-0.988-1.062-2.126-1.062-3.413
		c0-1.931,0.67-3.498,2.01-4.703c1.339-1.205,3.079-1.807,5.22-1.807c2.048,0,3.925,0.575,5.633,1.724v3.983
		c-1.767-1.699-3.667-2.548-5.702-2.548c-1.147,0-2.089,0.265-2.825,0.795c-0.737,0.53-1.105,1.209-1.105,2.036
		c0,0.734,0.271,1.422,0.813,2.063c0.543,0.641,1.416,1.313,2.619,2.019l2.681,1.586c2.99,1.786,4.485,4.06,4.485,6.82
		c0,1.965-0.658,3.562-1.975,4.791c-1.315,1.228-3.026,1.842-5.133,1.842c-2.421,0-4.626-0.744-6.615-2.233v-4.457
		c1.896,2.401,4.089,3.602,6.58,3.602c1.1,0,2.016-0.306,2.746-0.918c0.731-0.612,1.098-1.378,1.098-2.299
		C464.382,102.958,463.305,101.543,461.152,100.205z"/>
</g>
</svg>
